<svg width="1024" height="1024" viewBox="0 0 1024 1024" fill="none" xmlns="http://www.w3.org/2000/svg">
<path d="M335.75 616.268C335.75 623.219 338.241 628.78 343.222 632.951C348.204 637.121 355.115 639.206 363.958 639.206H442.789C443.287 651.465 446.556 662.777 452.596 673.141C458.636 683.505 466.762 691.877 476.974 698.259C487.186 704.642 498.831 707.833 511.907 707.833C525.107 707.833 536.814 704.674 547.026 698.354C557.238 692.035 565.364 683.662 571.404 673.236C577.444 662.809 580.714 651.465 581.211 639.206H660.043C668.885 639.206 675.797 637.121 680.778 632.951C685.759 628.78 688.25 623.219 688.25 616.268C688.25 609.948 686.444 603.818 682.833 597.878C679.221 591.938 674.707 586.124 669.29 580.438C663.872 574.75 658.486 569.062 653.131 563.376C649.021 559.078 645.815 553.453 643.512 546.502C641.207 539.551 639.494 532.158 638.374 524.323C637.253 516.487 636.443 508.904 635.946 501.573C635.572 476.675 632.988 454.779 628.193 435.885C623.398 416.99 615.957 401.224 605.87 388.585C595.783 375.947 582.457 366.594 565.893 360.528C562.78 348.142 556.459 337.652 546.932 329.058C537.406 320.464 525.731 316.167 511.907 316.167C498.208 316.167 486.595 320.464 477.068 329.058C467.541 337.652 461.22 348.142 458.107 360.528C441.544 366.594 428.187 375.947 418.038 388.585C407.888 401.224 400.447 416.99 395.714 435.885C390.982 454.779 388.429 476.675 388.055 501.573C387.557 508.904 386.748 516.487 385.627 524.323C384.506 532.158 382.794 539.551 380.49 546.502C378.186 553.453 374.979 559.078 370.869 563.376C365.514 569.062 360.128 574.75 354.711 580.438C349.293 586.124 344.779 591.938 341.167 597.878C337.556 603.818 335.75 609.948 335.75 616.268ZM371.99 610.58V608.304C373.111 606.535 374.979 604.166 377.594 601.195C380.21 598.225 383.167 594.971 386.468 591.433C389.768 587.893 393.037 584.291 396.275 580.626C399.637 576.835 402.564 572.443 405.055 567.45C407.545 562.459 409.662 556.803 411.406 550.484C413.15 544.164 414.519 537.15 415.516 529.44C416.512 521.731 417.259 513.263 417.757 504.037C418.255 476.486 421.057 454.621 426.163 438.444C431.269 422.267 438.088 410.229 446.619 402.33C455.149 394.43 464.77 388.964 475.48 385.931C477.846 385.426 479.652 384.509 480.897 383.182C482.143 381.855 482.828 379.991 482.952 377.59C483.326 367.732 486.097 359.675 491.265 353.419C496.433 347.163 503.314 344.035 511.907 344.035C520.624 344.035 527.568 347.163 532.737 353.419C537.904 359.675 540.674 367.732 541.048 377.59C541.048 379.991 541.702 381.855 543.011 383.182C544.318 384.509 546.092 385.426 548.334 385.931C559.044 388.964 568.664 394.43 577.196 402.33C585.726 410.229 592.575 422.267 597.744 438.444C602.913 454.621 605.746 476.486 606.243 504.037C606.617 513.263 607.333 521.731 608.391 529.44C609.449 537.15 610.82 544.164 612.502 550.484C614.183 556.803 616.268 562.459 618.759 567.45C621.249 572.443 624.176 576.835 627.539 580.626C630.902 584.291 634.233 587.893 637.534 591.433C640.834 594.971 643.761 598.225 646.314 601.195C648.866 604.166 650.702 606.535 651.823 608.304V610.58H371.99ZM471.931 639.206H552.07C551.323 652.097 547.275 662.303 539.927 669.823C532.58 677.342 523.24 681.102 511.907 681.102C500.699 681.102 491.39 677.342 483.98 669.823C476.57 662.303 472.553 652.097 471.931 639.206Z" fill="white"/>
</svg>
